# xmcd
#
# Track frame offsets: 
#        150
#        19764
#        38894
#        59500
#        84711
#        91176
#        143166
#        174970
#
# Disc length: 2554 seconds
#
# Revision: 0
# Processed by: cddbd v1.5.1PL0 Copyright (c) Steve Scherf et al.
# Submitted via: ExactAudioCopy v0.95a4
#
DISCID=6009f808
DTITLE=Jahruba - Rhythm Tales
DYEAR=1997
DGENRE=Blues
TTITLE0=Blackman-African
TTITLE1=Signifyin' Monkey
TTITLE2=Missin' Children
TTITLE3=Black Star Liner
TTITLE4=Thez Storiz
TTITLE5=Ananci's Moon Story
TTITLE6=The Creation
TTITLE7=The Talking Skull
EXTD=
EXTT0=
EXTT1=
EXTT2=
EXTT3=
EXTT4=
EXTT5=
EXTT6=
EXTT7=
PLAYORDER=
